<svg width="280" height="280" viewBox="0 0 280 280" fill="none" xmlns="http://www.w3.org/2000/svg">
<path d="M280 140C280 217.32 217.32 280 140 280C62.6801 280 0 217.32 0 140C0 62.6801 62.6801 0 140 0C217.32 0 280 62.6801 280 140Z" fill="url(#paint0_linear_927_6582)"/>
<path fill-rule="evenodd" clip-rule="evenodd" d="M133 77L108.5 101.5V147H136.5V112L143.5 105H178.5L185.5 112V147H213.5V101.5L189 77H133Z" fill="white"/>
<path fill-rule="evenodd" clip-rule="evenodd" d="M175 178.5L150.5 203H94.5L70 178.5V133H98V168L105 175H140L147 168V133H175V178.5Z" fill="white"/>
<defs>
<linearGradient id="paint0_linear_927_6582" x1="140" y1="0" x2="140" y2="280" gradientUnits="userSpaceOnUse">
<stop stop-color="#3193FF"/>
<stop offset="1" stop-color="#2256FE"/>
</linearGradient>
</defs>
</svg>
