<svg width="711" height="110" viewBox="0 0 711 110" fill="none" xmlns="http://www.w3.org/2000/svg">
<path d="M650.791 66.56C650.791 60.4 652.038 55.01 654.531 50.39C657.024 45.6967 660.434 42.1034 664.761 39.61C669.161 37.0434 674.111 35.76 679.611 35.76C684.891 35.76 689.658 37.0434 693.911 39.61C698.164 42.1767 701.281 45.5134 703.261 49.62V15.3H710.961V96.7001H703.261V83.28C701.428 87.46 698.421 90.9067 694.241 93.6201C690.061 96.2601 685.148 97.58 679.501 97.58C674.001 97.58 669.051 96.2967 664.651 93.73C660.324 91.1634 656.914 87.5334 654.421 82.84C652.001 78.1467 650.791 72.72 650.791 66.56ZM703.261 66.6701C703.261 61.83 702.271 57.5767 700.291 53.91C698.311 50.2434 695.598 47.42 692.151 45.44C688.778 43.46 685.038 42.47 680.931 42.47C676.678 42.47 672.864 43.4234 669.491 45.33C666.118 47.2367 663.441 50.0234 661.461 53.69C659.554 57.2834 658.601 61.5734 658.601 66.56C658.601 71.4734 659.554 75.8 661.461 79.5401C663.441 83.2067 666.118 86.0301 669.491 88.01C672.864 89.9167 676.678 90.8701 680.931 90.8701C685.038 90.8701 688.778 89.8801 692.151 87.9C695.598 85.92 698.311 83.0967 700.291 79.43C702.271 75.7634 703.261 71.51 703.261 66.6701Z" fill="white"/>
<path d="M606.262 35.54C613.448 35.54 619.315 37.7766 623.862 42.25C628.408 46.65 630.682 53.0666 630.682 61.5V96.7H623.092V62.38C623.092 55.8533 621.442 50.8666 618.142 47.42C614.915 43.9733 610.478 42.25 604.832 42.25C599.038 42.25 594.418 44.0833 590.972 47.75C587.525 51.4166 585.802 56.8066 585.802 63.92V96.7H578.102V36.64H585.802V46.87C587.708 43.2033 590.458 40.4166 594.052 38.51C597.645 36.53 601.715 35.54 606.262 35.54Z" fill="white"/>
<path d="M557.414 63.59C557.414 66.23 557.341 68.2467 557.194 69.64H507.364C507.584 74.1867 508.684 78.0734 510.664 81.3C512.644 84.5267 515.247 86.9834 518.474 88.67C521.701 90.2834 525.221 91.09 529.034 91.09C534.021 91.09 538.201 89.88 541.574 87.46C545.021 85.04 547.294 81.7767 548.394 77.67H556.534C555.067 83.5367 551.914 88.34 547.074 92.08C542.307 95.7467 536.294 97.58 529.034 97.58C523.387 97.58 518.327 96.3334 513.854 93.84C509.381 91.2734 505.861 87.68 503.294 83.06C500.801 78.3667 499.554 72.9034 499.554 66.67C499.554 60.4367 500.801 54.9734 503.294 50.28C505.787 45.5867 509.271 41.9934 513.744 39.5C518.217 37.0067 523.314 35.76 529.034 35.76C534.754 35.76 539.741 37.0067 543.994 39.5C548.321 41.9934 551.621 45.3667 553.894 49.62C556.241 53.8 557.414 58.4567 557.414 63.59ZM549.604 63.37C549.677 58.8967 548.761 55.0834 546.854 51.93C545.021 48.7767 542.491 46.3934 539.264 44.78C536.037 43.1667 532.517 42.36 528.704 42.36C522.984 42.36 518.107 44.1934 514.074 47.86C510.041 51.5267 507.804 56.6967 507.364 63.37H549.604Z" fill="white"/>
<path d="M461.08 97.58C454.186 97.58 448.54 96.0034 444.14 92.85C439.813 89.6234 437.393 85.26 436.88 79.76H444.8C445.166 83.1334 446.743 85.8834 449.53 88.01C452.39 90.0634 456.203 91.09 460.97 91.09C465.15 91.09 468.413 90.1 470.76 88.12C473.18 86.14 474.39 83.6834 474.39 80.75C474.39 78.6967 473.73 77.01 472.41 75.69C471.09 74.37 469.403 73.3434 467.35 72.61C465.37 71.8034 462.656 70.96 459.21 70.08C454.736 68.9067 451.106 67.7334 448.32 66.56C445.533 65.3867 443.15 63.6634 441.17 61.39C439.263 59.0434 438.31 55.9267 438.31 52.04C438.31 49.1067 439.19 46.3934 440.95 43.9C442.71 41.4067 445.203 39.4267 448.43 37.96C451.656 36.4934 455.323 35.76 459.43 35.76C465.883 35.76 471.09 37.41 475.05 40.71C479.01 43.9367 481.136 48.41 481.43 54.13H473.73C473.51 50.61 472.116 47.7867 469.55 45.66C467.056 43.46 463.61 42.36 459.21 42.36C455.323 42.36 452.17 43.2767 449.75 45.11C447.33 46.9434 446.12 49.2167 446.12 51.93C446.12 54.2767 446.816 56.22 448.21 57.76C449.676 59.2267 451.473 60.4 453.6 61.28C455.726 62.0867 458.586 63.0034 462.18 64.03C466.506 65.2034 469.953 66.34 472.52 67.44C475.086 68.54 477.286 70.1534 479.12 72.28C480.953 74.4067 481.906 77.23 481.98 80.75C481.98 83.9767 481.1 86.8734 479.34 89.44C477.58 91.9334 475.123 93.9134 471.97 95.38C468.816 96.8467 465.186 97.58 461.08 97.58Z" fill="white"/>
<path d="M403.573 44.8901C405.406 41.8101 407.826 39.4267 410.833 37.7401C413.913 35.9801 417.543 35.1001 421.723 35.1001V48.0801H418.533C413.62 48.0801 409.88 49.3267 407.313 51.8201C404.82 54.3134 403.573 58.6401 403.573 64.8001V96.7001H391.033V36.0901H403.573V44.8901Z" fill="white"/>
<path d="M372.092 64.9101C372.092 67.1834 371.946 69.2367 371.652 71.0701H325.342C325.709 75.9101 327.506 79.7967 330.732 82.7301C333.959 85.6634 337.919 87.1301 342.612 87.1301C349.359 87.1301 354.126 84.3067 356.912 78.6601H370.442C368.609 84.2334 365.272 88.8167 360.432 92.4101C355.666 95.9301 349.726 97.6901 342.612 97.6901C336.819 97.6901 331.612 96.4067 326.992 93.8401C322.446 91.2001 318.852 87.5334 316.212 82.8401C313.646 78.0734 312.362 72.5734 312.362 66.3401C312.362 60.1067 313.609 54.6434 316.102 49.9501C318.669 45.1834 322.226 41.5167 326.772 38.9501C331.392 36.3834 336.672 35.1001 342.612 35.1001C348.332 35.1001 353.429 36.3467 357.902 38.8401C362.376 41.3334 365.859 44.8534 368.352 49.4001C370.846 53.8734 372.092 59.0434 372.092 64.9101ZM359.002 60.9501C358.929 56.3301 357.279 52.6267 354.052 49.8401C350.826 47.0534 346.829 45.6601 342.062 45.6601C337.736 45.6601 334.032 47.0534 330.952 49.8401C327.872 52.5534 326.039 56.2567 325.452 60.9501H359.002Z" fill="white"/>
<path d="M283.644 46.3199V79.8699C283.644 82.1432 284.158 83.7932 285.184 84.8199C286.284 85.7732 288.118 86.2499 290.684 86.2499H298.384V96.6999H288.484C282.838 96.6999 278.511 95.3799 275.504 92.7399C272.498 90.0999 270.994 85.8099 270.994 79.8699V46.3199H263.844V36.0899H270.994V21.0199H283.644V36.0899H298.384V46.3199H283.644Z" fill="white"/>
<path d="M221.559 35.1001C226.326 35.1001 230.579 36.0901 234.319 38.0701C238.132 40.0501 241.102 42.9834 243.229 46.8701C245.356 50.7567 246.419 55.4501 246.419 60.9501V96.7001H233.989V62.8201C233.989 57.3934 232.632 53.2501 229.919 50.3901C227.206 47.4567 223.502 45.9901 218.809 45.9901C214.116 45.9901 210.376 47.4567 207.589 50.3901C204.876 53.2501 203.519 57.3934 203.519 62.8201V96.7001H190.979V36.0901H203.519V43.0201C205.572 40.5267 208.176 38.5834 211.329 37.1901C214.556 35.7967 217.966 35.1001 221.559 35.1001Z" fill="white"/>
<path d="M161.755 28.06C159.482 28.06 157.575 27.29 156.035 25.75C154.495 24.21 153.725 22.3033 153.725 20.03C153.725 17.7567 154.495 15.85 156.035 14.31C157.575 12.77 159.482 12 161.755 12C163.955 12 165.825 12.77 167.365 14.31C168.905 15.85 169.675 17.7567 169.675 20.03C169.675 22.3033 168.905 24.21 167.365 25.75C165.825 27.29 163.955 28.06 161.755 28.06ZM167.915 36.09V96.7H155.375V36.09H167.915Z" fill="white"/>
<circle cx="55" cy="55" r="55" fill="white"/>
<g clip-path="url(#clip0_280_1652)">
<path fill-rule="evenodd" clip-rule="evenodd" d="M52.25 30.25L42.625 39.875V57.75H53.625V44L56.375 41.25H70.125L72.875 44V57.75H83.875V39.875L74.25 30.25H52.25Z" fill="#2A74FF"/>
<path fill-rule="evenodd" clip-rule="evenodd" d="M68.75 68.75V70.125L59.125 79.75H37.125L27.5 70.125V52.25H38.5V66L41.25 68.75H55L57.75 66V52.25H68.75V68.75Z" fill="#2A74FF"/>
</g>
<defs>
<clipPath id="clip0_280_1652">
<rect width="56.375" height="49.5" fill="white" transform="translate(27.5 30.25)"/>
</clipPath>
</defs>
</svg>
